<svg width="138" height="28" viewBox="0 0 138 28" fill="none" xmlns="http://www.w3.org/2000/svg">
<path d="M22.2 7.35999V26.24C22.2 26.6 21.96 26.84 21.6 26.84H17.12C16.76 26.84 16.56 26.6 16.52 26.24L16.4 24.76C15 26.32 13.12 27.4 10.64 27.4C5.07996 27.4 0.959961 22.72 0.959961 16.88C0.959961 11.04 5.07996 6.35999 10.64 6.35999C13 6.35999 14.96 7.47999 16.4 9.11999L16.52 7.43999C16.56 7.07999 16.76 6.83999 17.12 6.83999H21.6C21.96 6.75999 22.2 6.99999 22.2 7.35999ZM15.92 16.8C15.92 14.12 14 11.88 11.4 11.88C8.75996 11.88 6.83996 14 6.83996 16.8C6.83996 19.64 8.75996 21.76 11.4 21.76C14 21.76 15.92 19.48 15.92 16.8Z" fill="#322F2E"/>
<path d="M40.0798 8.24003L38.7198 11.76C38.5598 12.24 38.1998 12.32 37.7198 12.2C37.3198 12.08 36.7998 11.88 36.0398 11.88C33.4798 11.88 31.9598 13.76 31.9598 16.24V26.24C31.9598 26.6 31.7198 26.84 31.3598 26.84H26.4398C26.0798 26.84 25.8398 26.6 25.8398 26.24V7.36003C25.8398 7.00003 26.0798 6.76003 26.4398 6.76003H31.1598C31.5198 6.76003 31.7198 7.00003 31.7598 7.36003L31.9198 9.68003C32.9598 7.72003 34.6398 6.28003 37.0798 6.28003C38.2798 6.28003 39.2798 6.76003 39.8798 7.32003C40.1998 7.64003 40.1998 7.96003 40.0798 8.24003Z" fill="#322F2E"/>
<path d="M54.8001 20.12C55.1201 19.84 55.4001 19.84 55.7201 20.12L58.6801 22.96C58.9201 23.2 58.9601 23.52 58.7201 23.84C56.8401 26 54.0401 27.4 50.8401 27.4C45.0401 27.4 40.5601 22.76 40.5601 16.88C40.5601 11 45.0801 6.35999 50.8401 6.35999C53.9601 6.35999 56.7201 7.75999 58.6001 9.91999C58.8401 10.2 58.8001 10.52 58.5601 10.8L55.5601 13.6C55.2801 13.88 55.0001 13.84 54.6801 13.56C53.5201 12.56 52.3601 12 51.0001 12C48.3201 12 46.4401 14.08 46.4401 16.84C46.4401 19.6 48.3201 21.68 51.0001 21.68C52.4401 21.68 53.6401 21.12 54.8001 20.12Z" fill="#322F2E"/>
<path d="M81.6399 7.35999V26.24C81.6399 26.6 81.3999 26.84 81.0399 26.84H76.5599C76.1999 26.84 75.9999 26.6 75.9599 26.24L75.8399 24.76C74.4399 26.32 72.5599 27.4 70.0799 27.4C64.5199 27.4 60.3999 22.72 60.3999 16.88C60.3999 11.04 64.5199 6.35999 70.0799 6.35999C72.4399 6.35999 74.3999 7.47999 75.8399 9.11999L75.9599 7.43999C75.9999 7.07999 76.1999 6.83999 76.5599 6.83999H81.0399C81.3999 6.75999 81.6399 6.99999 81.6399 7.35999ZM75.3599 16.8C75.3599 14.12 73.4399 11.88 70.8399 11.88C68.1999 11.88 66.2799 14 66.2799 16.8C66.2799 19.64 68.1999 21.76 70.8399 21.76C73.4399 21.76 75.3599 19.48 75.3599 16.8Z" fill="#322F2E"/>
<path d="M99.5197 8.24003L98.1598 11.76C97.9998 12.24 97.6398 12.32 97.1198 12.2C96.7198 12.08 96.1998 11.88 95.4398 11.88C92.8798 11.88 91.3597 13.76 91.3597 16.24V26.24C91.3597 26.6 91.1198 26.84 90.7598 26.84H85.8397C85.4797 26.84 85.2397 26.6 85.2397 26.24V7.36003C85.2397 7.00003 85.4797 6.76003 85.8397 6.76003H90.5597C90.9197 6.76003 91.1198 7.00003 91.1598 7.36003L91.3197 9.68003C92.3597 7.72003 94.0398 6.28003 96.4798 6.28003C97.6798 6.28003 98.6797 6.76003 99.2797 7.32003C99.6397 7.64003 99.6397 7.96003 99.5197 8.24003Z" fill="#322F2E"/>
<path d="M114.08 7.36001V11.08C114.08 11.44 113.84 11.68 113.48 11.68H110.6V26.2C110.6 26.56 110.36 26.8 110 26.8H105.08C104.72 26.8 104.48 26.56 104.48 26.2V11.72H101.6C101.24 11.72 101 11.48 101 11.12V7.36001C101 7.00001 101.24 6.76002 101.6 6.76002H104.48V1.24001C104.48 0.880015 104.72 0.640015 105.08 0.640015H110C110.36 0.640015 110.6 0.880015 110.6 1.24001V6.76002H113.48C113.84 6.76002 114.08 7.00001 114.08 7.36001Z" fill="#322F2E"/>
<path d="M137.04 7.35999V26.24C137.04 26.6 136.8 26.84 136.44 26.84H131.96C131.6 26.84 131.4 26.6 131.36 26.24L131.24 24.76C129.84 26.32 127.96 27.4 125.48 27.4C119.92 27.4 115.8 22.72 115.8 16.88C115.8 11.04 119.92 6.35999 125.48 6.35999C127.84 6.35999 129.8 7.47999 131.24 9.11999L131.36 7.43999C131.4 7.07999 131.6 6.83999 131.96 6.83999H136.44C136.8 6.75999 137.04 6.99999 137.04 7.35999ZM130.76 16.8C130.76 14.12 128.84 11.88 126.24 11.88C123.6 11.88 121.68 14 121.68 16.8C121.68 19.64 123.6 21.76 126.24 21.76C128.84 21.76 130.76 19.48 130.76 16.8Z" fill="#322F2E"/>
</svg>
